<svg width="1280" height="720" xmlns="http://www.w3.org/2000/svg" xmlns:xlink="http://www.w3.org/1999/xlink" overflow="hidden"><g><rect x="0" y="0" width="1280" height="720" fill="#FFFFFF"/><path d="M211 308.001C211 293.641 222.641 282 237.001 282L1043 282C1057.36 282 1069 293.641 1069 308.001L1069 411.999C1069 426.359 1057.36 438 1043 438L237.001 438C222.641 438 211 426.359 211 411.999Z" fill="#F2F2F2" fill-rule="evenodd"/><path d="M225 317.334C225 305.551 234.551 296 246.334 296L404.666 296C416.449 296 426 305.551 426 317.334L426 402.666C426 414.448 416.449 424 404.666 424L246.334 424C234.551 424 225 414.448 225 402.666Z" fill-rule="evenodd"/><text fill="#FFFFFF" font-family="Baskerville Old Face,Baskerville Old Face_MSFontService,sans-serif" font-weight="400" font-size="59" transform="translate(272.524 379)">UW</text><text font-family="Calibri,Calibri_MSFontService,sans-serif" font-weight="700" font-size="96" transform="translate(449.156 392)">UDUPI WALA</text></g></svg>